<svg width="20" height="20" viewBox="0 0 20 20" fill="none" xmlns="http://www.w3.org/2000/svg">
  <path d="M10 1.66666C8.19193 1.66666 6.71414 2.8153 5.76482 3.79837C5.2745 4.30611 4.88569 4.81056 4.61972 5.18691C4.55991 5.27153 4.50604 5.35007 4.45835 5.42116H2.5C1.57953 5.42116 0.833334 6.16734 0.833334 7.08783V12.8496C0.833334 13.7701 1.57953 14.5163 2.5 14.5163H4.45427C4.50203 14.5887 4.55603 14.6687 4.616 14.755C4.88166 15.1372 5.27012 15.6496 5.76006 16.1654C6.7074 17.1627 8.18648 18.3333 10 18.3333C10.4602 18.3333 10.8333 17.9602 10.8333 17.5V2.5C10.8333 2.03976 10.4602 1.66666 10 1.66666Z" fill="black"/>
  <path fill-rule="evenodd" clip-rule="evenodd" d="M12.7118 5.69495C13.0183 5.35167 13.5451 5.32188 13.8884 5.62843C14.192 5.89951 14.4668 6.2028 14.708 6.533C15.4157 7.50192 15.8333 8.70319 15.8333 10C15.8333 11.2856 15.4229 12.4773 14.7264 13.4418C14.4808 13.7817 14.1997 14.0936 13.8884 14.3716C13.5451 14.6781 13.0183 14.6484 12.7118 14.3051C12.4052 13.9618 12.435 13.435 12.7783 13.1284C12.9995 12.9309 13.1999 12.7087 13.3752 12.466C13.3752 12.466 13.3752 12.466 13.3752 12.466C13.8717 11.7784 14.1667 10.9265 14.1667 10C14.1667 9.0654 13.8666 8.20676 13.3621 7.51602C13.1899 7.2803 12.9941 7.06426 12.7783 6.87159C12.435 6.56504 12.4052 6.03824 12.7118 5.69495Z" fill="black"/>
  <path fill-rule="evenodd" clip-rule="evenodd" d="M13.6693 2.46952C13.9114 2.07812 14.425 1.95711 14.8164 2.19924C17.4254 3.81327 19.1667 6.70294 19.1667 9.99999C19.1667 13.3491 17.3701 16.2778 14.6921 17.8763C14.2969 18.1121 13.7853 17.983 13.5494 17.5878C13.3135 17.1926 13.4427 16.681 13.8379 16.4451C16.0329 15.1349 17.5 12.7384 17.5 9.99999C17.5 7.30412 16.0782 4.93963 13.9395 3.61662C13.5481 3.37449 13.4271 2.86091 13.6693 2.46952Z" fill="black"/>
</svg>
