<svg width="16" height="16" viewBox="0 0 16 16" fill="none" xmlns="http://www.w3.org/2000/svg">
  <g clip-path="url(#clip0)">
    <path d="M11.4286 2.85712H1.71428C0.767511 2.85712 0 3.62463 0 4.5714V14.2857C0 15.2324 0.767511 16 1.71428 16H11.4286C12.3753 16 13.1428 15.2324 13.1428 14.2857V4.5714C13.1428 3.62463 12.3753 2.85712 11.4286 2.85712ZM12 14.2857C12 14.6013 11.7442 14.8571 11.4286 14.8571H1.71428C1.39868 14.8571 1.14285 14.6013 1.14285 14.2857V4.5714C1.14285 4.2558 1.39868 3.99996 1.71428 3.99996H11.4286C11.7442 3.99996 12 4.2558 12 4.5714V14.2857Z" fill="black"/>
    <path d="M14.2857 0H4.00001C3.05323 0 2.28572 0.767511 2.28572 1.71428C2.28572 2.02989 2.54156 2.28572 2.85716 2.28572C3.17276 2.28572 3.42857 2.02989 3.42857 1.71428C3.42857 1.39868 3.6844 1.14285 4.00001 1.14285H14.2857C14.6013 1.14285 14.8572 1.39868 14.8572 1.71428V12C14.8572 12.3156 14.6013 12.5714 14.2857 12.5714C13.9701 12.5714 13.7143 12.8273 13.7143 13.1429C13.7143 13.4585 13.9701 13.7143 14.2857 13.7143C15.2325 13.7143 16 12.9468 16 12V1.71428C16 0.767511 15.2325 0 14.2857 0Z" fill="black"/>
  </g>
  <defs>
    <clipPath id="clip0">
      <rect width="16" height="16" fill="white"/>
    </clipPath>
  </defs>
</svg>
