<svg width="20" height="20" viewBox="0 0 20 20" fill="none" xmlns="http://www.w3.org/2000/svg">
  <path d="M18.9763 7.90152L17.5725 7.66338C17.4263 7.19127 17.2382 6.73587 17.0085 6.30136L17.8357 5.14407C18.1866 4.65107 18.1323 3.97842 17.702 3.55227L16.457 2.30724C16.223 2.07327 15.9138 1.94376 15.5838 1.94376C15.3247 1.94376 15.0782 2.02314 14.8693 2.17354L13.7079 3.00078C13.2567 2.76264 12.7845 2.56627 12.2957 2.42004L12.0618 1.03296C11.9615 0.435514 11.4476 0.00100708 10.8418 0.00100708H9.08288C8.47707 0.00100708 7.96318 0.435514 7.86291 1.03296L7.62059 2.45347C7.15266 2.5997 6.69726 2.79188 6.26276 3.02585L5.11382 2.19861C4.90492 2.04821 4.65424 1.96882 4.39521 1.96882C4.06515 1.96882 3.7518 2.09834 3.52202 2.33231L2.27281 3.57734C1.84666 4.00349 1.78817 4.67614 2.13911 5.16914L2.9747 6.34314C2.74492 6.78183 2.56109 7.23723 2.41904 7.70933L1.03196 7.9433C0.434507 8.04357 0 8.55746 0 9.16326V10.9222C0 11.528 0.434507 12.0419 1.03196 12.1421L2.45246 12.3845C2.59869 12.8524 2.79087 13.3078 3.02484 13.7423L2.20178 14.8871C1.85083 15.3801 1.90515 16.0527 2.33548 16.4789L3.58051 17.7239C3.81447 17.9579 4.12364 18.0874 4.4537 18.0874C4.71273 18.0874 4.95923 18.008 5.16813 17.8576L6.34214 17.022C6.76411 17.2434 7.20697 17.4231 7.66237 17.5651L7.89634 18.9689C7.99661 19.5664 8.5105 20.0009 9.1163 20.0009H10.8794C11.4852 20.0009 11.9991 19.5664 12.0994 18.9689L12.3375 17.5651C12.8096 17.4189 13.265 17.2309 13.6995 17.0011L14.8568 17.8283C15.0657 17.9787 15.3164 18.0581 15.5754 18.0581C15.9055 18.0581 16.2146 17.9286 16.4486 17.6946L17.6936 16.4496C18.1198 16.0235 18.1783 15.3508 17.8273 14.8578L17.0001 13.6963C17.2299 13.2577 17.4221 12.8023 17.5641 12.3343L18.9679 12.1004C19.5654 12.0001 19.9999 11.4862 19.9999 10.8804V9.12148C20.0082 8.51568 19.5737 8.00179 18.9763 7.90152ZM18.8802 10.8804C18.8802 10.9347 18.8426 10.9807 18.7883 10.989L17.0335 11.2815C16.8121 11.3191 16.6366 11.482 16.5823 11.6951C16.4235 12.3093 16.1812 12.8984 15.8553 13.4457C15.7425 13.6379 15.7509 13.876 15.8804 14.0598L16.9124 15.5138C16.9416 15.5555 16.9374 15.6182 16.8998 15.6558L15.6548 16.9008C15.6256 16.9301 15.5963 16.9343 15.5754 16.9343C15.5504 16.9343 15.5295 16.9259 15.5127 16.9134L14.063 15.8814C13.8833 15.7519 13.641 15.7435 13.4488 15.8563C12.9015 16.1822 12.3124 16.4245 11.6983 16.5833C11.481 16.6376 11.3181 16.8173 11.2847 17.0345L10.988 18.7893C10.9797 18.8436 10.9337 18.8812 10.8794 18.8812H9.12048C9.06616 18.8812 9.02021 18.8436 9.01185 18.7893L8.71939 17.0345C8.68179 16.8131 8.51885 16.6376 8.30578 16.5833C7.70833 16.4287 7.13177 16.1906 6.59281 15.8814C6.50508 15.8313 6.40481 15.8062 6.30871 15.8062C6.19591 15.8062 6.07893 15.8396 5.98283 15.9107L4.52055 16.951C4.49966 16.9635 4.47877 16.9719 4.45788 16.9719C4.44117 16.9719 4.40774 16.9677 4.3785 16.9384L3.13347 15.6934C3.09587 15.6558 3.09169 15.5973 3.12093 15.5514L4.14871 14.11C4.27823 13.9261 4.28658 13.6838 4.17378 13.4916C3.8479 12.9485 3.59722 12.3594 3.43846 11.7452C3.37997 11.5322 3.20449 11.3692 2.98724 11.3316L1.21996 11.0308C1.16565 11.0225 1.12805 10.9765 1.12805 10.9222V9.16326C1.12805 9.10895 1.16565 9.06299 1.21996 9.05464L2.96217 8.76218C3.1836 8.72458 3.36325 8.56164 3.41757 8.34438C3.57215 7.73022 3.8103 7.13696 4.132 6.58964C4.2448 6.39746 4.23227 6.15931 4.10275 5.97966L3.06244 4.51738C3.0332 4.4756 3.03737 4.41293 3.07498 4.37533L4.32001 3.1303C4.34925 3.10105 4.3785 3.09687 4.39939 3.09687C4.42446 3.09687 4.44535 3.10523 4.46206 3.11776L5.90345 4.14554C6.08728 4.27506 6.3296 4.28341 6.52179 4.17061C7.06492 3.84473 7.65402 3.59405 8.26817 3.43529C8.48125 3.3768 8.64419 3.20132 8.68179 2.98407L8.9826 1.21679C8.99096 1.16248 9.03692 1.12488 9.09123 1.12488H10.8502C10.9045 1.12488 10.9504 1.16248 10.9588 1.21679L11.2512 2.959C11.2888 3.18043 11.4518 3.36008 11.669 3.4144C12.2999 3.57316 12.9015 3.81966 13.4614 4.14972C13.6536 4.26252 13.8917 4.25417 14.0755 4.12465L15.5169 3.08852C15.5378 3.07598 15.5587 3.06763 15.5796 3.06763C15.5963 3.06763 15.6297 3.0718 15.659 3.10105L16.904 4.34608C16.9416 4.38368 16.9458 4.44217 16.9165 4.48813L15.8846 5.93788C15.7551 6.11753 15.7467 6.35985 15.8595 6.55204C16.1854 7.09935 16.4277 7.68845 16.5865 8.3026C16.6408 8.51986 16.8204 8.6828 17.0377 8.71622L18.7924 9.01286C18.8468 9.02121 18.8844 9.06717 18.8844 9.12148V10.8804H18.8802Z" fill="black"/>
  <path d="M10.002 5.6821C7.62058 5.6821 5.68619 7.61649 5.68619 9.99793C5.68619 12.3794 7.62058 14.3138 10.002 14.3138C12.3835 14.3138 14.3178 12.3794 14.3178 9.99793C14.3178 7.61649 12.3835 5.6821 10.002 5.6821ZM10.002 13.1857C8.2431 13.1857 6.81424 11.7568 6.81424 9.99793C6.81424 8.23901 8.2431 6.81015 10.002 6.81015C11.7609 6.81015 13.1898 8.23901 13.1898 9.99793C13.1898 11.7568 11.7609 13.1857 10.002 13.1857Z" fill="black"/>
</svg>

