<svg width="126" height="126" viewBox="0 0 126 126" fill="none" xmlns="http://www.w3.org/2000/svg">
<path d="M111.292 22.3333H63C62.7272 22.3333 62.4563 22.3761 62.1968 22.4603L61.5868 22.6635C60.2548 23.1067 59.5342 24.5457 59.9774 25.8774C59.9801 25.8855 59.9829 25.8934 59.9855 25.9015L85.5343 100.561L68.7085 119.786C67.785 120.843 67.8929 122.449 68.9499 123.372C69.4136 123.777 70.0088 124 70.6248 124H111.292C118.31 124 124 118.31 124 111.292V35.0417C124 28.0229 118.31 22.3333 111.292 22.3333Z" fill="#CAE5CB" stroke="black" stroke-width="4" stroke-miterlimit="10"/>
<path d="M115.227 60.6113C117.151 60.6113 118.711 59.0518 118.711 57.1281C118.711 55.2044 117.151 53.6449 115.227 53.6449H97.6294V50.1617C97.6294 48.238 96.0698 46.6785 94.1462 46.6785C92.2225 46.6785 90.663 48.238 90.663 50.1617V53.6449H73.0649C71.1412 53.6449 69.5817 55.2044 69.5817 57.1281C69.5817 59.0518 71.1412 60.6113 73.0649 60.6113H81.6024C82.3276 66.1533 84.7573 71.1669 88.3482 75.1047C85.8659 76.2326 78.3474 79.2491 75.4477 79.2491C73.524 79.2491 71.9645 80.8087 71.9645 82.7323C71.9645 84.656 73.524 86.2156 75.4477 86.2156C80.5499 86.2156 90.0873 82.3935 94.1462 79.9011C98.205 82.3935 107.742 86.2156 112.845 86.2156C114.768 86.2156 116.328 84.656 116.328 82.7323C116.328 80.8087 114.768 79.2491 112.845 79.2491C109.945 79.2491 102.427 76.2326 99.9441 75.1047C103.535 71.1669 105.965 66.1533 106.69 60.6113H115.227ZM94.1459 71.0953C91.3436 68.2999 89.3804 64.6674 88.6548 60.6113H99.6373C98.9117 64.6674 96.9485 68.2999 94.1459 71.0953Z" fill="#455A64"/>
<path d="M90.7295 100.073C90.317 99.1659 89.4128 98.5835 88.4165 98.5833H63C61.5963 98.5833 60.4583 99.7213 60.4583 101.125C60.4583 101.43 60.5133 101.734 60.621 102.02L68.246 122.353C68.5608 123.19 69.2925 123.8 70.1725 123.959C70.3219 123.985 70.4732 123.999 70.625 124C71.3577 123.999 72.0542 123.682 72.5362 123.131L90.328 102.797C90.9849 102.047 91.142 100.981 90.7295 100.073Z" fill="#35A03A" stroke="black" stroke-width="4" stroke-miterlimit="10"/>
<path d="M90.821 100.301L57.7795 3.71825C57.4276 2.69054 56.4613 2 55.375 2H14.7083C7.68968 2 2 7.68968 2 14.7083V90.9583C2 97.9768 7.68968 103.667 14.7083 103.667H88.4165C89.8202 103.667 90.958 102.528 90.958 101.125C90.9583 100.845 90.9118 100.566 90.821 100.301Z" fill="#55B85E" stroke="black" stroke-width="4" stroke-miterlimit="10"/>
<path d="M30.9079 71.8063L33.0205 66.2596H47.4973L49.586 71.7943C50.2209 73.4766 51.8196 74.5132 53.5174 74.5132C54.0103 74.5132 54.5116 74.4258 54.9998 74.2415H54.9998C57.1706 73.4223 58.2662 70.9983 57.4473 68.8275L44.9422 35.6911C44.9276 35.6528 44.9128 35.6147 44.8971 35.5769C44.1289 33.7085 42.3275 32.5017 40.3076 32.5017H40.3029C38.2808 32.5037 36.4794 33.7138 35.7139 35.5855C35.7008 35.6172 35.6882 35.6491 35.6761 35.681L23.0562 68.816C22.2306 70.9843 23.3186 73.4114 25.4869 74.237C27.6561 75.0638 30.0823 73.9743 30.9079 71.8063ZM40.2922 47.1672L44.3266 57.8575H36.2206L40.2922 47.1672Z" fill="white"/>
</svg>
