<svg xmlns="http://www.w3.org/2000/svg" enable-background="new 0 0 24 24" height="24" viewBox="0 0 24 24" width="24" focusable="false" style="pointer-events: none; display: block; width: 100%; height: 100%;"><path d="M7.5 3.63c-.01.07-.01.14-.02.22-.01.06-.02.11-.03.16-.01.05-.02.1-.04.15-.01.04-.02.09-.04.13-.02.05-.04.09-.06.14-.07.15-.15.28-.25.41-.11.15-.24.29-.37.42-.14.14-.28.27-.43.39-.13.12-.27.23-.4.35-.15.14-.31.28-.46.42-.12.11-.24.23-.35.36-.1.1-.19.21-.27.32-.09.11-.17.22-.25.33-.01.01-.02.02-.02.03-.01.02-.02.01-.03 0-.02-.03-.05-.06-.07-.1-.06-.07-.12-.15-.18-.23-.13-.17-.28-.33-.44-.49-.1-.1-.21-.21-.32-.3l-.6-.54-.3-.27-.37-.34c-.1-.09-.19-.2-.27-.31-.06-.08-.11-.16-.16-.25-.04-.08-.07-.16-.11-.24-.03-.07-.05-.13-.07-.2-.02-.04-.03-.09-.04-.14l-.03-.13c0-.02-.01-.05-.01-.08-.01-.1-.02-.21-.01-.31.01-.06.01-.12.02-.18 0-.04.01-.07.02-.11.01-.05.03-.11.05-.16.03-.08.06-.15.09-.22.05-.09.1-.18.16-.26.1-.12.22-.23.35-.32.1-.06.2-.12.31-.16.08-.02.15-.05.22-.07.16-.04.33-.06.5-.05.08 0 .15.01.23.03.05.01.11.02.16.04.06.02.12.04.18.07.09.04.18.09.27.15.11.07.21.16.29.25.04.05.09.1.13.15.01.02.02.02.03 0 .05-.05.09-.11.14-.16.08-.09.18-.18.28-.24.07-.05.14-.09.22-.13.06-.03.12-.05.19-.07l.18-.06c.03-.01.07-.01.1-.01.06-.01.12-.01.18-.02.07 0 .14 0 .2.01.05 0 .09.01.14.01.02 0 .04.01.06.01.05.01.11.03.16.04l.15.06c.07.04.14.07.2.1.1.06.19.13.28.21.06.06.12.12.17.19.05.06.09.13.13.19.03.05.06.11.08.16.03.05.04.11.06.17.01.03.02.07.03.11 0 .02.01.04.01.06 0 .03.01.07.01.1.01.06.01.13.02.21zm7.05 9.87v-3L12 9l-2.55 1.5v3L12 15l2.55-1.5zm8.2 5.5L21 17h-3l-1.75 2 3.25 3 3.25-3zm-3.25-8.5c.83 0 1.5.67 1.5 1.5s-.67 1.5-1.5 1.5S18 12.83 18 12s.67-1.5 1.5-1.5m0-1c-1.38 0-2.5 1.12-2.5 2.5s1.12 2.5 2.5 2.5S22 13.38 22 12s-1.12-2.5-2.5-2.5zm0-6.5c.83 0 1.5.67 1.5 1.5S20.33 6 19.5 6 18 5.33 18 4.5 18.67 3 19.5 3m0-1C18.12 2 17 3.12 17 4.5S18.12 7 19.5 7 22 5.88 22 4.5 20.88 2 19.5 2zm-15 16c.83 0 1.5.67 1.5 1.5S5.33 21 4.5 21 3 20.33 3 19.5 3.67 18 4.5 18m0-1C3.12 17 2 18.12 2 19.5S3.12 22 4.5 22 7 20.88 7 19.5 5.88 17 4.5 17zM12 3c.83 0 1.5.67 1.5 1.5S12.83 6 12 6s-1.5-.67-1.5-1.5S11.17 3 12 3m0-1c-1.38 0-2.5 1.12-2.5 2.5S10.62 7 12 7s2.5-1.12 2.5-2.5S13.38 2 12 2zm0 16c.83 0 1.5.67 1.5 1.5S12.83 21 12 21s-1.5-.67-1.5-1.5.67-1.5 1.5-1.5m0-1c-1.38 0-2.5 1.12-2.5 2.5S10.62 22 12 22s2.5-1.12 2.5-2.5S13.38 17 12 17zm-7.5-6.5c.83 0 1.5.67 1.5 1.5s-.67 1.5-1.5 1.5S3 12.83 3 12s.67-1.5 1.5-1.5m0-1C3.12 9.5 2 10.62 2 12s1.12 2.5 2.5 2.5S7 13.38 7 12 5.88 9.5 4.5 9.5z"/></svg>