<svg xmlns="http://www.w3.org/2000/svg" fill="none" class="privacy-icon" height="14" viewBox="0 0 30 14" width="30"><path clip-rule="evenodd" d="m7.39998 12.8h6.80002l3.1-11.60005h-9.90002c-3.2 0-5.8 2.6-5.8 5.8 0 3.20005 2.6 5.80005 5.8 5.80005z" fill="#fff" fill-rule="evenodd"/><path clip-rule="evenodd" d="m22.6 0h-15.19998c-3.9 0-6.999996 3.1-6.999996 7s3.099996 7 6.999996 7h15.19998c3.9 0 7-3.1 7-7s-3.2-7-7-7zm-20.99998 7c0-3.2 2.6-5.8 5.8-5.8h9.89998l-3.1 11.6h-6.79998c-3.2 0-5.8-2.6-5.8-5.8z" fill="#06f" fill-rule="evenodd"/><path d="m24.6001 4.0001c.2.2.2.6 0 .8l-2.1 2.2 2.2 2.2c.2.2.2.6 0 .8s-.6.2-.8 0l-2.2-2.2-2.2 2.2c-.2.2-.6.2-.8 0s-.2-.6 0-.8l2.1-2.2-2.2-2.2c-.2-.2-.2-.6 0-.8s.6-.2.8 0l2.2 2.2 2.2-2.2c.2-.2.6-.2.8 0z" fill="#fff"/><path d="m12.7 4.09995c.2.2.3.6.1.8l-4.2 4.9c-.1.1-.2.2-.3.2-.2.10005-.5.10005-.7-.1l-2.2-2.2c-.2-.2-.2-.6 0-.8s.6-.2.8 0l1.8 1.7 3.8-4.5c.2-.2.6-.2.9 0z" fill="#06f"/></svg>